HIERARCHY
ROOT Hips
{
	OFFSET -3.958830 18.904000 13.208200
	CHANNELS 6 Xposition Yposition Zposition Zrotation Yrotation Xrotation 
	JOINT LHipJoint
	{
		OFFSET 0.000000 0.000000 0.000000
		CHANNELS 3 Zrotation Yrotation Xrotation
		JOINT LeftUpLeg
		{
			OFFSET 1.800000 -1.400000 0.085000
			CHANNELS 3 Zrotation Yrotation Xrotation
			JOINT LeftLeg
			{
				OFFSET 2.215000 -6.000000 0.000000
				CHANNELS 3 Zrotation Yrotation Xrotation
				JOINT LeftFoot
				{
					OFFSET 2.500000 -6.900000 0.000000
					CHANNELS 3 Zrotation Yrotation Xrotation
					JOINT LeftToeBase
					{
						OFFSET 0.200000 -0.500000 1.950000
						CHANNELS 3 Zrotation Yrotation Xrotation
						End Site
						{
							OFFSET 0.000000 0.000000 0.000000
						}
					}
				}
			}
		}
	}
	JOINT RHipJoint
	{
		OFFSET 0.000000 0.000000 0.000000
		CHANNELS 3 Zrotation Yrotation Xrotation
		JOINT RightUpLeg
		{
			OFFSET -1.800000 -1.400000 0.085000
			CHANNELS 3 Zrotation Yrotation Xrotation
			JOINT RightLeg
			{
				OFFSET -2.215000 -6.000000 0.000000
				CHANNELS 3 Zrotation Yrotation Xrotation
				JOINT RightFoot
				{
					OFFSET -2.500000 -6.900000 0.000000
					CHANNELS 3 Zrotation Yrotation Xrotation
					JOINT RightToeBase
					{
						OFFSET -0.200000 -0.500000 1.950000
						CHANNELS 3 Zrotation Yrotation Xrotation
						End Site
						{
							OFFSET 0.000000 0.000000 0.000000
						}
					}
				}
			}
		}
	}
	JOINT LowerBack
	{
		OFFSET 0.000000 0.000000 0.000000
		CHANNELS 3 Zrotation Yrotation Xrotation
		JOINT Spine
		{
			OFFSET -0.087000 1.940000 -0.288900
			CHANNELS 3 Zrotation Yrotation Xrotation
			JOINT Spine1
			{
				OFFSET 0.000000 1.950000 0.060000
				CHANNELS 3 Zrotation Yrotation Xrotation
				JOINT Neck
				{
					OFFSET 0.000000 0.000000 0.000000
					CHANNELS 3 Zrotation Yrotation Xrotation
					JOINT Neck1
					{
						OFFSET 0.000000 1.600000 0.340000
						CHANNELS 3 Zrotation Yrotation Xrotation
						JOINT Head
						{
							OFFSET 0.000000 1.667000 -0.240000
							CHANNELS 3 Zrotation Yrotation Xrotation
							End Site
							{
								OFFSET 0.000000 0.000000 0.000000
							}
						}
					}
				}
				JOINT LeftShoulder
				{
					OFFSET 0.000000 0.000000 0.000000
					CHANNELS 3 Zrotation Yrotation Xrotation
					JOINT LeftArm
					{
						OFFSET 2.700000 1.550000 -0.730000
						CHANNELS 3 Zrotation Yrotation Xrotation
						JOINT LeftForeArm
						{
							OFFSET 5.450000 0.000000 0.000000
							CHANNELS 3 Zrotation Yrotation Xrotation
							JOINT LeftHand
							{
								OFFSET 3.450000 0.000000 0.000000
								CHANNELS 3 Zrotation Yrotation Xrotation
								JOINT LeftHandIndex1
								{
									OFFSET 0.750000 0.000000 0.000000
									CHANNELS 3 Zrotation Yrotation Xrotation
									End Site
									{
										OFFSET 0.000000 0.000000 0.000000
									}
								}
							}
						}
					}
				}
				JOINT RightShoulder
				{
					OFFSET 0.000000 0.000000 0.000000
					CHANNELS 3 Zrotation Yrotation Xrotation
					JOINT RightArm
					{
						OFFSET -2.700000 1.550000 -0.730000
						CHANNELS 3 Zrotation Yrotation Xrotation
						JOINT RightForeArm
						{
							OFFSET -5.450000 0.000000 0.000000
							CHANNELS 3 Zrotation Yrotation Xrotation
							JOINT RightHand
							{
								OFFSET -3.450000 0.000000 0.000000
								CHANNELS 3 Zrotation Yrotation Xrotation
								JOINT RightHandIndex1
								{
									OFFSET -0.750000 0.000000 0.000000
									CHANNELS 3 Zrotation Yrotation Xrotation
									End Site
									{
										OFFSET 0.000000 0.000000 0.000000
									}
								}
							}
						}
					}
				}
			}
		}
	}
}
MOTION
Frames: 9
Frame Time: 0.016667
0.405190 17.623120 -1.944530 -12.398409 -0.979579 -5.508082 -14.763381 12.016120 1.180481 12.319272 -0.784498 -5.318992 -4.046400 7.045860 19.050319 -0.693391 5.281752 2.939022 0.027080 -0.294800 -0.003540 19.144550 -8.445544 6.232778 -7.336904 18.320584 -57.692000 11.672189 -29.526288 85.062892 -3.109048 -15.972791 -0.362169 -0.068520 0.578150 0.089780 -5.409691 -1.093825 -8.340529 30.225895 -11.276967 15.390714 -12.789570 -6.080278 10.682293 3.440081 -3.360164 -9.189854 -9.185664 4.751172 46.190265 -6.635990 3.050960 -4.837970 -13.140100 -5.153151 3.748458 -26.559602 2.595555 -5.831302 -41.858494 -59.982218 20.166422 -3.874487 3.056948 0.649750 0.266040 -0.213600 0.128530 6.065366 4.196143 4.810298 42.133920 5.227093 -7.982627 31.219347 49.400537 10.812994 1.771630 -1.397093 -0.502390 0.550690 0.351280 -0.231820 
0.413350 17.534520 -1.972840 -12.123546 -1.636910 -6.518740 -14.791998 12.096105 1.162534 11.917415 -0.635471 -4.800569 -3.627142 7.191577 20.351661 -0.660339 5.389653 2.888963 0.047740 -0.276030 0.006240 19.112048 -8.322677 6.378914 -8.909315 18.588917 -58.778206 12.934159 -31.328362 86.305435 -3.257119 -16.454264 -0.462282 -0.067590 0.547650 0.085680 -5.315932 -1.331051 -8.454532 29.458668 -11.652731 18.090875 -12.346104 -6.157259 9.681226 3.387439 -3.747096 -9.279444 -9.982762 5.461465 46.294025 -6.097330 3.076580 -5.575810 -14.454571 -5.725468 3.707915 -25.703126 3.187100 -6.110286 -40.510386 -58.331181 18.700036 -3.834889 3.053318 0.672940 0.233420 -0.195270 0.127920 7.458799 5.205248 4.860710 41.492838 5.231901 -8.486714 29.906368 50.368955 10.524413 1.782394 -1.375439 -0.490880 0.538750 0.341140 -0.235200 
0.429310 17.391760 -2.017040 -12.336178 -2.729329 -8.534068 -14.840229 12.255741 1.133608 12.013368 -0.464396 -4.086487 -2.843285 7.578463 23.255097 -0.563304 5.674353 2.745499 0.100610 -0.208280 0.056010 19.042020 -8.169072 6.555662 -10.600090 19.128149 -59.515613 15.200747 -34.298073 87.691856 -3.502197 -17.136567 -0.625505 -0.055540 0.454810 0.093510 -5.133372 -1.691723 -8.607373 28.847352 -12.535629 22.907999 -11.842039 -6.341759 8.073643 3.553930 -4.253629 -9.274422 -11.001276 5.957400 46.309668 -6.037050 2.883620 -7.758740 -16.869419 -6.695341 3.557877 -24.171331 3.959606 -6.569727 -37.823739 -55.652697 16.223034 -3.751231 3.068774 0.697790 0.158100 -0.127680 0.114050 9.534217 6.839043 4.900013 40.073979 5.639742 -9.079462 28.523228 51.575266 10.234225 1.829915 -1.353413 -0.438530 0.499470 0.306930 -0.234230 
0.434030 17.232870 -2.062610 -11.382922 -3.961001 -10.948825 -14.948499 12.497233 1.176920 11.257804 -0.241810 -3.429979 -2.188853 8.192662 27.221449 -0.422649 6.159215 2.538460 0.144990 -0.169890 0.091740 18.911509 -7.918972 6.728033 -12.586441 19.680964 -59.967982 16.727052 -36.719709 89.674510 -3.726666 -17.776749 -0.768230 -0.062170 0.379730 0.124900 -4.776255 -2.370128 -8.817849 25.782083 -12.579766 28.859436 -10.258023 -6.296778 5.963567 3.631980 -4.545919 -9.461725 -11.803834 6.471228 46.952214 -5.992110 2.669590 -9.136570 -20.247804 -8.330517 3.634175 -22.549492 5.230470 -7.084265 -33.893932 -51.849553 12.916402 -3.665907 3.099551 0.729940 0.097820 -0.068100 0.108900 12.802985 9.283226 5.131833 38.221860 5.540582 -10.135554 26.016887 52.779209 9.397829 1.856317 -1.332864 -0.385880 0.445590 0.282630 -0.233530 
0.434230 17.071770 -2.097580 -10.020257 -4.896750 -12.752839 -15.085987 12.731256 1.253376 9.951053 -0.247703 -4.073285 -1.147559 8.836180 32.525294 -0.247427 6.800559 2.292137 0.168980 -0.146180 0.112570 18.762424 -7.644258 6.850653 -14.381698 19.971938 -60.236835 17.473197 -38.272930 91.420186 -3.868809 -18.218491 -0.846780 -0.069440 0.346870 0.142410 -4.353604 -3.131973 -9.008792 21.951671 -11.745106 33.668940 -8.136935 -6.021518 3.679086 3.647299 -4.665302 -9.427874 -12.141978 6.906345 47.347713 -6.138690 2.685050 -9.453190 -23.711667 -9.360168 3.585652 -21.622717 6.245270 -7.229878 -29.387272 -47.342476 9.657208 -3.614435 3.110570 0.728880 0.076120 -0.040340 0.111570 16.322723 11.168160 5.152408 36.107622 5.493733 -10.759005 23.208436 52.806241 8.263906 1.871464 -1.312233 -0.348800 0.416460 0.261240 -0.226110 
0.426390 16.917060 -2.110700 -8.689955 -6.031504 -13.304303 -15.208123 12.847042 1.389797 8.958876 -0.508367 -5.967729 -0.911611 9.815025 37.644439 -0.119640 7.577871 1.989259 0.151750 -0.183410 0.136810 18.638874 -7.413209 6.887173 -15.191252 20.512680 -59.982567 17.638910 -38.558471 92.287994 -3.901912 -18.347250 -0.887444 -0.084600 0.328740 0.149860 -3.999751 -3.696535 -9.178568 18.783904 -10.292041 35.841277 -6.358435 -5.324333 1.786787 3.829715 -4.416621 -9.129408 -11.649883 7.123841 48.420644 -7.192500 3.181060 -9.609980 -26.890126 -9.515393 3.216502 -21.885435 6.192894 -6.879824 -22.875198 -41.219665 5.956156 -3.614327 3.042873 0.751120 0.071380 -0.033670 0.078210 19.214567 11.928263 4.933406 35.851492 5.919243 -11.110787 20.255071 52.306946 6.995218 1.868829 -1.259327 -0.360480 0.411910 0.284940 -0.252110 
0.433970 16.794860 -2.100450 -7.922290 -6.822418 -13.032872 -15.256410 12.835720 1.570194 8.593814 -0.962592 -8.233937 -1.576283 11.028673 41.628582 -0.039363 8.328318 1.700170 0.128460 -0.234250 0.151400 18.584083 -7.343285 6.784390 -15.109472 20.540139 -58.465197 17.572228 -37.883347 91.663066 -3.842866 -18.110443 -0.859614 -0.095210 0.321550 0.140150 -3.858374 -3.898041 -9.264460 17.706088 -9.572429 35.543244 -5.917503 -4.905690 0.640496 4.147181 -4.636478 -9.003379 -12.359585 7.846762 50.610803 -7.825850 3.172810 -10.143240 -28.849026 -9.041665 2.733911 -24.136604 4.933470 -6.231844 -15.479415 -33.705697 2.617905 -3.636016 2.868245 0.809250 0.053750 -0.025910 0.047150 20.543056 11.996560 4.802313 38.177554 6.466488 -11.716862 17.657644 52.565969 5.846741 1.850153 -1.177236 -0.401870 0.447590 0.324860 -0.284220 
0.446670 16.715110 -2.073630 -7.576638 -6.373324 -12.235393 -15.239730 12.798850 1.768339 8.105267 -1.641520 -10.634184 -1.704494 11.582620 44.572163 0.033055 8.772427 1.500090 0.121820 -0.243530 0.149110 18.577268 -7.479048 6.541951 -14.181851 19.540613 -55.679480 16.573820 -35.983354 89.990053 -3.679460 -17.511117 -0.762870 -0.107820 0.288260 0.136780 -3.873563 -3.841836 -9.261385 17.999478 -9.554176 33.462922 -6.330557 -4.930113 -0.025508 4.565374 -4.751859 -9.190384 -13.045813 8.559119 53.608375 -7.644710 2.878540 -10.028890 -29.499108 -8.322189 2.401615 -27.895825 3.420891 -5.509826 -7.490932 -26.310882 0.176939 -3.672244 2.706710 0.834860 0.025600 -0.008030 0.019850 20.322018 11.377241 4.856954 42.910531 6.388512 -12.657937 15.586431 53.253493 4.726682 1.849041 -1.127160 -0.391930 0.440450 0.347330 -0.293140 
0.449070 16.661950 -2.027790 -6.906136 -5.669406 -10.900101 -15.217865 12.800864 1.981132 7.347323 -2.216695 -12.696377 -1.912902 11.784832 45.980425 0.103163 8.917516 1.424199 0.112280 -0.246880 0.140640 18.566747 -7.715778 6.227622 -12.641240 18.270758 -52.534457 14.290552 -32.555837 87.910399 -3.416592 -16.595020 -0.580961 -0.134020 0.254880 0.126080 -3.886771 -3.739474 -9.230694 17.849028 -9.210668 30.692645 -6.449978 -4.923289 -1.351446 4.839032 -4.577129 -9.079988 -12.946597 8.650667 55.892286 -7.660300 2.795360 -8.989460 -29.246051 -6.237040 1.652494 -32.407951 2.282845 -4.938371 -1.520393 -20.652068 -0.988006 -3.720340 2.600681 0.827030 0.005460 0.001850 0.008450 19.493833 9.154146 4.698904 48.490345 5.612215 -13.265106 16.362773 54.737423 4.938315 1.881360 -1.132572 -0.364150 0.411580 0.342250 -0.288050 
